<svg width="32" height="32" viewBox="0 0 32 32" fill="none" xmlns="http://www.w3.org/2000/svg">
  <!-- Background Circle with Gradient -->
  <circle cx="16" cy="16" r="16" fill="url(#gradient)"/>

  <!-- PDF Document Shape -->
  <path d="M10 8C10 7.44772 10.4477 7 11 7H18L22 11V23C22 23.5523 21.5523 24 21 24H11C10.4477 24 10 23.5523 10 23V8Z" fill="white" opacity="0.95"/>

  <!-- Folded Corner -->
  <path d="M18 7V10C18 10.5523 18.4477 11 19 11H22L18 7Z" fill="white" opacity="0.7"/>

  <!-- AI Sparkle/Star -->
  <path d="M16 13L16.5 14.5L18 15L16.5 15.5L16 17L15.5 15.5L14 15L15.5 14.5L16 13Z" fill="url(#sparkleGradient)"/>
  <path d="M19 18L19.3 18.7L20 19L19.3 19.3L19 20L18.7 19.3L18 19L18.7 18.7L19 18Z" fill="url(#sparkleGradient)" opacity="0.8"/>
  <path d="M13 19L13.3 19.7L14 20L13.3 20.3L13 21L12.7 20.3L12 20L12.7 19.7L13 19Z" fill="url(#sparkleGradient)" opacity="0.6"/>

  <!-- Gradients -->
  <defs>
    <linearGradient id="gradient" x1="0" y1="0" x2="32" y2="32" gradientUnits="userSpaceOnUse">
      <stop offset="0%" stop-color="#3B82F6"/>
      <stop offset="50%" stop-color="#8B5CF6"/>
      <stop offset="100%" stop-color="#EC4899"/>
    </linearGradient>
    <linearGradient id="sparkleGradient" x1="14" y1="13" x2="18" y2="21" gradientUnits="userSpaceOnUse">
      <stop offset="0%" stop-color="#FBBF24"/>
      <stop offset="100%" stop-color="#F59E0B"/>
    </linearGradient>
  </defs>
</svg>
